#!OML:ASF H:\Terrain\Patient Classification 1\Animal1\Tuesday\Animal1.ASF
:FULLY-SPECIFIED
:DEGREES
3118
root 12.5916 15.4928 -13.0868 32.6918 24.182 -8.7609
lowerback 11.9334 1.87582 0.301488
upperback -8.00993 2.62431 -0.285601
thorax -15.7103 1.1745 -1.15914
lowerneck -2.83047 5.9949 -1.67208
upperneck 2.24045 7.97147 4.07124
head 0.927739 4.03162 1.66112
rclavicle -3.49861e-014 -1.59028e-014
rhumerus -53.9559 12.2355 -96.9594
rradius 51.385
rwrist -20.9152
rhand -33.7987 42.0104
rfingers 7.12502
rthumb -6.98528 12.1457
lclavicle -3.49861e-014 -1.59028e-014
lhumerus -44.4796 -16.7149 101.873
lradius 55.2162
lwrist -46.0654
lhand -13.47 39.1083
lfingers 7.12502
lthumb 12.6401 68.7059
rfemur -58.8911 -7.79141 37.9082
rtibia 46.5135
rfoot -19.2924 -30.8007
rtoes 15.2151
lfemur -72.2214 -6.59033 6.53345
ltibia 48.5543
lfoot -18.0908 -4.44107
ltoes -19.15
3119
root 12.597 15.4988 -13.0681 32.5935 24.3626 -8.76287
lowerback 11.6233 1.80895 0.491556
upperback -8.16228 2.58886 -0.16359
thorax -15.6951 1.14902 -1.1113
lowerneck -3.72465 5.98486 -1.58182
upperneck 3.61749 7.92099 4.0339
head 1.52694 4.02069 1.71289
rclavicle -6.67916e-014 -1.59028e-015
rhumerus -54.0969 12.1961 -96.9493
rradius 51.0474
rwrist -20.6756
rhand -33.7739 41.5163
rfingers 7.12502
rthumb -6.96129 11.6507
lclavicle -6.67916e-014 -1.59028e-015
lhumerus -44.5653 -16.706 102.062
lradius 54.8072
lwrist -46.117
lhand -14.8747 38.6294
lfingers 7.12502
lthumb 11.2856 68.3058
rfemur -58.6663 -7.96133 37.9865
rtibia 46.4631
rfoot -19.2642 -30.8566
rtoes 14.5185
lfemur -72.1074 -6.70839 6.54083
ltibia 48.5422
lfoot -18.1646 -4.49062
ltoes -18.8718
3120
root 12.5986 15.5005 -13.048 32.5059 24.6028 -8.81632
lowerback 11.3481 1.7477 0.72476
upperback -8.37465 2.56874 -0.0518434
thorax -15.7733 1.12384 -1.10641
lowerneck -4.69716 6.00811 -1.19356
upperneck 5.18186 7.90304 3.79155
head 2.23566 4.02485 1.66464
rclavicle -5.40694e-014 2.62396e-014
rhumerus -54.321 12.0659 -96.9743
rradius 50.767
rwrist -20.4323
rhand -33.4035 40.9167
rfingers 7.12502
rthumb -6.60375 11.0396
lclavicle -5.40694e-014 2.62396e-014
lhumerus -44.7447 -16.8202 102.302
lradius 54.339
lwrist -45.9515
lhand -17.609 38.0504
lfingers 7.12502
lthumb 8.64768 67.8533
rfemur -58.4931 -8.03303 38.0847
rtibia 46.4435
rfoot -19.6467 -30.8553
rtoes 14.9945
lfemur -72.06 -6.79315 6.6232
ltibia 48.5449
lfoot -18.2787 -4.43563
ltoes -19.5677
3121
root 12.5994 15.4968 -13.0306 32.4871 24.6165 -8.82287
lowerback 11.0209 1.77821 0.729479
upperback -8.58064 2.6302 0.0528878
thorax -15.8192 1.16174 -0.999038
lowerneck -5.7477 5.959 -0.87286
upperneck 6.72952 7.79898 3.49292
head 2.97798 3.98046 1.61207
rclavicle 4.37326e-015 -5.32743e-014
rhumerus -54.4296 12.0994 -96.9458
rradius 50.4514
rwrist -20.5302
rhand -33.1535 40.8723
rfingers 7.12502
rthumb -6.36244 10.9878
lclavicle 4.37326e-015 -5.32743e-014
lhumerus -44.9547 -17.1128 102.688
lradius 53.9462
lwrist -45.5116
lhand -16.8771 38.4009
lfingers 7.12502
lthumb 9.35397 68.1733
rfemur -58.4072 -7.85913 37.9601
rtibia 46.4601
rfoot -20.6708 -30.5281
rtoes 17.8876
lfemur -71.9808 -6.69686 6.5228
ltibia 48.5573
lfoot -18.3248 -4.43171
ltoes -20.3403
3122
root 12.6043 15.4943 -13.0125 32.4591 24.543 -8.83639
lowerback 10.6542 1.8208 0.769993
upperback -8.74273 2.71367 0.162806
thorax -15.7841 1.20761 -0.908029
lowerneck -6.85501 5.90094 -0.737821
upperneck 8.11232 7.70393 3.24948
head 3.68833 3.93357 1.60489
rclavicle -8.60738e-014 -4.37326e-014
rhumerus -54.464 12.2952 -96.9109
rradius 50.1253
rwrist -20.6643
rhand -33.3527 40.8079
rfingers 7.12502
rthumb -6.5547 10.9293
lclavicle -8.60738e-014 -4.37326e-014
lhumerus -45.0081 -17.2874 102.992
lradius 53.5086
lwrist -45.2922
lhand -13.6458 39.2716
lfingers 7.12502
lthumb 12.4706 68.8795
rfemur -58.3081 -7.64084 37.796
rtibia 46.4949
rfoot -21.1658 -30.3835
rtoes 19.5023
lfemur -71.8666 -6.61843 6.43439
ltibia 48.5644
lfoot -18.3248 -4.5724
ltoes -20.0045
3123
root 12.6192 15.5046 -12.9891 32.1493 24.713 -8.60712
lowerback 10.6368 1.71126 0.971203
upperback -8.8188 2.6071 0.202502
thorax -15.8609 1.13799 -0.95172
lowerneck -7.75655 5.91805 -0.54397
upperneck 9.31577 7.70731 3.05425
head 4.3133 3.9348 1.59208
rclavicle -4.01545e-014 -1.59028e-015
rhumerus -54.5609 12.3829 -96.9084
rradius 49.8373
rwrist -20.5615
rhand -33.5031 40.3183
rfingers 7.12502
rthumb -6.69992 10.4443
lclavicle -4.01545e-014 -1.59028e-015
lhumerus -44.9809 -17.2498 103.079
lradius 52.9038
lwrist -45.4819
lhand -12.3871 39.5716
lfingers 7.12502
lthumb 13.684 69.1017
rfemur -57.8173 -7.93763 37.5492
rtibia 46.552
rfoot -20.8179 -30.7728
rtoes 18.0243
lfemur -71.4822 -7.03471 6.17346
ltibia 48.5469
lfoot -18.4501 -4.69427
ltoes -19.6134
